<svg width="36" height="27" viewBox="0 0 36 27" fill="none" xmlns="http://www.w3.org/2000/svg">
<path d="M2.61164 1.24C2.63831 0.986666 2.81164 0.773332 3.13164 0.599999C3.46497 0.413332 3.79164 0.319999 4.11164 0.319999C4.31164 0.319999 4.46497 0.359999 4.57164 0.44C4.67831 0.519999 4.72497 0.646666 4.71164 0.819999C4.32497 4.3 3.92497 7.78 3.51164 11.26L2.91164 16.48C2.88497 16.7333 2.70497 16.9533 2.37164 17.14C2.03831 17.3267 1.70497 17.42 1.37164 17.42C0.918307 17.42 0.711641 17.2467 0.751641 16.9L1.69164 9.06C2.11831 5.38 2.42497 2.77333 2.61164 1.24ZM11.8491 10.28C11.8491 8.86667 11.0225 7.75333 9.36914 6.94C8.95581 7.28667 8.54247 7.74667 8.12914 8.32C7.62247 9.05333 7.20247 9.87333 6.86914 10.78C6.73581 11.14 6.60914 11.6333 6.48914 12.26C6.36914 12.8733 6.30914 13.4467 6.30914 13.98C6.30914 14.5267 6.38247 14.9667 6.52914 15.3C6.68914 15.62 6.94247 15.78 7.28914 15.78C7.56914 15.78 7.89581 15.6667 8.26914 15.44C9.29581 14.84 10.1491 14.0933 10.8291 13.2C11.5091 12.3067 11.8491 11.3333 11.8491 10.28ZM12.4091 6.66C12.8891 7.11333 13.2558 7.62667 13.5091 8.2C13.7758 8.77333 13.9091 9.38 13.9091 10.02C13.9091 10.94 13.6425 11.8733 13.1091 12.82C12.7491 13.46 12.2225 14.1333 11.5291 14.84C10.8358 15.5467 10.0625 16.1467 9.20914 16.64C8.36914 17.12 7.56247 17.36 6.78914 17.36C6.30914 17.36 5.85581 17.2533 5.42914 17.04C4.52247 16.5467 4.06914 15.66 4.06914 14.38C4.06914 13.46 4.27581 12.4533 4.68914 11.36C5.10247 10.2533 5.54247 9.32 6.00914 8.56C7.14247 6.76 8.33581 5.62667 9.58914 5.16C9.93581 5.02667 10.3091 4.96 10.7091 4.96C11.1758 4.96 11.5691 5.08 11.8891 5.32C12.2091 5.54667 12.3958 5.90667 12.4491 6.4V6.48C12.4491 6.52 12.4358 6.58 12.4091 6.66ZM17.3009 15.16C17.8475 14.4267 18.3209 13.6533 18.7209 12.84C19.0675 12.1733 19.4342 11.3467 19.8209 10.36C20.2075 9.37333 20.4009 8.56 20.4009 7.92C20.4009 7.70667 20.3742 7.54 20.3209 7.42C19.9209 7.44667 19.6809 7.32667 19.6009 7.06C19.5075 6.72667 19.4075 6.56 19.3009 6.56C19.2209 6.56 19.1409 6.61333 19.0609 6.72C18.9809 6.81333 18.8675 6.98667 18.7209 7.24C18.5342 7.52 18.3342 7.90667 18.1209 8.4C17.6809 9.33333 17.3209 10.2467 17.0409 11.14C16.7209 12.06 16.4675 12.8933 16.2809 13.64C16.0942 14.3867 16.0009 15.1 16.0009 15.78C16.0009 16.0733 16.0209 16.36 16.0609 16.64L16.4809 16.2C16.7342 15.9067 17.0075 15.56 17.3009 15.16ZM21.5209 5.72C21.9209 5.88 22.2075 6.10667 22.3809 6.4C22.5542 6.69333 22.6409 7.06667 22.6409 7.52C22.6409 7.94667 22.5342 8.68 22.3209 9.72C21.7342 12.4667 21.2542 14.9733 20.8809 17.24C20.5209 19.5067 20.2609 21.7467 20.1009 23.96C20.0875 24.1467 20.0609 24.3067 20.0209 24.44C19.9942 24.5867 19.9342 24.76 19.8409 24.96C19.6942 25.2533 19.4609 25.5133 19.1409 25.74C18.8342 25.98 18.5409 26.1 18.2609 26.1C18.0075 26.1 17.8142 25.9867 17.6809 25.76L17.1009 24.76C16.2609 23.2933 15.5475 22.0933 14.9609 21.16C14.9209 21.1067 14.9009 21.04 14.9009 20.96C14.9009 20.7333 15.0675 20.52 15.4009 20.32C15.7342 20.12 16.0742 20.02 16.4209 20.02C16.7675 20.02 17.0075 20.1333 17.1409 20.36C17.3275 20.7067 17.5409 21.08 17.7809 21.48L18.1809 22.18C18.4742 19.82 18.8009 17.5933 19.1609 15.5C18.5475 16.3533 17.9009 17.0867 17.2209 17.7C16.5542 18.3133 15.9342 18.62 15.3609 18.62C14.9209 18.62 14.5409 18.42 14.2209 18.02C13.9542 17.6867 13.8209 17.2067 13.8209 16.58C13.8209 16.2333 13.8475 15.8933 13.9009 15.56C13.9675 15.2267 14.0675 14.7733 14.2009 14.2L14.3209 13.72C14.7209 11.9067 15.3142 10.14 16.1009 8.42C16.4742 7.63333 16.8475 6.98 17.2209 6.46C17.6075 5.94 18.0942 5.54667 18.6809 5.28C19.0409 5.10667 19.4409 5.02 19.8809 5.02C20.5342 5.02 21.0342 5.24 21.3809 5.68L21.5209 5.72ZM26.4248 1.7C26.2781 1.66 26.1314 1.64 25.9848 1.64C25.6914 1.64 25.4314 1.71333 25.2048 1.86C24.9114 2.02 24.7448 2.18 24.7048 2.34C24.5314 2.96667 24.4181 3.38 24.3648 3.58V3.64C24.3648 3.70667 24.3914 3.77333 24.4448 3.84C24.4981 3.89333 24.5581 3.93333 24.6248 3.96C24.7314 4.01333 24.8514 4.04 24.9848 4.04C25.1981 4.04 25.4514 3.98 25.7448 3.86C26.0514 3.72667 26.2514 3.54667 26.3448 3.32C26.4248 3.09333 26.5381 2.69333 26.6848 2.12V2.08C26.6848 2.01333 26.6581 1.94667 26.6048 1.88C26.5514 1.8 26.4914 1.74 26.4248 1.7ZM25.6448 9.72C25.5648 10.2533 25.4114 11.22 25.1848 12.62C24.9714 14.0067 24.7914 15.2667 24.6448 16.4C24.6048 16.6533 24.4248 16.8733 24.1048 17.06C23.7981 17.2333 23.4848 17.32 23.1648 17.32C22.9514 17.32 22.7848 17.28 22.6648 17.2C22.5581 17.1067 22.5181 16.9733 22.5448 16.8C22.7714 15.4667 23.0114 13.9467 23.2648 12.24C23.5314 10.52 23.7181 9.29333 23.8248 8.56L24.2448 5.82C24.2848 5.58 24.4648 5.37333 24.7848 5.2C25.1181 5.02667 25.4381 4.94 25.7448 4.94C25.9314 4.94 26.0781 4.98 26.1848 5.06C26.2914 5.14 26.3314 5.25333 26.3048 5.4L25.6448 9.72ZM34.6952 5.06C35.2286 5.35333 35.4952 5.97333 35.4952 6.92C35.4952 7.26667 35.4619 7.65333 35.3952 8.08C35.3286 8.49333 35.2552 8.88667 35.1752 9.26L35.0352 10.06L34.1952 16.28C34.4619 16.3467 34.5752 16.5133 34.5352 16.78C34.3886 17.5133 33.8686 17.98 32.9752 18.18L32.7752 18.2C32.5486 18.2 32.3486 18.1533 32.1752 18.06C32.0019 17.9667 31.9286 17.82 31.9552 17.62C32.5152 13.5667 32.9286 10.5267 33.1952 8.5C33.2086 8.44667 33.2352 8.29333 33.2752 8.04C33.3286 7.78667 33.3552 7.54667 33.3552 7.32C33.3552 6.89333 33.2419 6.67333 33.0152 6.66C32.8419 6.63333 32.5552 6.87333 32.1552 7.38C31.7686 7.87333 31.5552 8.14667 31.5152 8.2C30.7152 9.10667 29.9686 10.12 29.2752 11.24C28.9552 13.1867 28.7019 14.76 28.5152 15.96L28.4152 16.6C28.3752 16.8533 28.1886 17.0733 27.8552 17.26C27.5219 17.4467 27.1952 17.54 26.8752 17.54C26.6752 17.54 26.5152 17.5 26.3952 17.42C26.2886 17.3267 26.2486 17.1933 26.2752 17.02C26.6219 14.98 26.8952 13.3133 27.0952 12.02C27.0152 11.94 26.9752 11.8467 26.9752 11.74C26.9752 11.6733 26.9952 11.6 27.0352 11.52C27.0752 11.4533 27.1086 11.3933 27.1352 11.34C27.1752 11.2867 27.2086 11.24 27.2352 11.2L28.0352 6.36C28.0752 6.12 28.2552 5.91333 28.5752 5.74C28.8952 5.56667 29.2152 5.48 29.5352 5.48C29.7352 5.48 29.8886 5.52 29.9952 5.6C30.1019 5.68 30.1419 5.8 30.1152 5.96C30.0486 6.4 29.9552 6.96667 29.8352 7.66L30.6752 6.76C31.2352 6.2 31.7686 5.74 32.2752 5.38C32.7819 5.02 33.2952 4.84 33.8152 4.84C34.1486 4.84 34.4419 4.91333 34.6952 5.06Z" fill="black"/>
</svg>
